<mxfile host="app.diagrams.net" agent="Mozilla/5.0 (Windows NT 10.0; Win64; x64) AppleWebKit/537.36 (KHTML, like Gecko) Chrome/141.0.0.0 Safari/537.36 Edg/141.0.0.0" version="28.2.7">
  <diagram name="PÃ¡gina-1" id="GbVgwtEzpV3l9Pa_YQuV">
    <mxGraphModel dx="1771" dy="358" grid="1" gridSize="10" guides="1" tooltips="1" connect="1" arrows="1" fold="1" page="0" pageScale="1" pageWidth="827" pageHeight="1169" math="0" shadow="0">
      <root>
        <mxCell id="0" />
        <mxCell id="1" parent="0" />
        <mxCell id="CbZgWEF0q6MDqlBdlFNe-30" value="" style="rounded=0;whiteSpace=wrap;html=1;" vertex="1" parent="1">
          <mxGeometry x="-170" y="440" width="710" height="290" as="geometry" />
        </mxCell>
        <mxCell id="CbZgWEF0q6MDqlBdlFNe-15" value="" style="sketch=0;pointerEvents=1;shadow=0;dashed=0;html=1;strokeColor=none;labelPosition=center;verticalLabelPosition=bottom;verticalAlign=top;align=center;fillColor=#505050;shape=mxgraph.mscae.enterprise.settings" vertex="1" parent="1">
          <mxGeometry x="120" y="519" width="145" height="140" as="geometry" />
        </mxCell>
        <mxCell id="CbZgWEF0q6MDqlBdlFNe-16" value="" style="sketch=0;pointerEvents=1;shadow=0;dashed=0;html=1;strokeColor=none;fillColor=#505050;labelPosition=center;verticalLabelPosition=bottom;verticalAlign=top;outlineConnect=0;align=center;shape=mxgraph.office.concepts.globe_internet;" vertex="1" parent="1">
          <mxGeometry x="-130" y="520" width="139" height="139" as="geometry" />
        </mxCell>
        <mxCell id="CbZgWEF0q6MDqlBdlFNe-17" value="" style="sketch=0;shadow=0;dashed=0;html=1;strokeColor=none;fillColor=#505050;labelPosition=center;verticalLabelPosition=bottom;verticalAlign=top;outlineConnect=0;align=center;shape=mxgraph.office.databases.database;" vertex="1" parent="1">
          <mxGeometry x="380" y="519" width="100" height="140" as="geometry" />
        </mxCell>
        <mxCell id="CbZgWEF0q6MDqlBdlFNe-19" value="" style="endArrow=classic;html=1;rounded=0;" edge="1" parent="1">
          <mxGeometry width="50" height="50" relative="1" as="geometry">
            <mxPoint x="10" y="588.5" as="sourcePoint" />
            <mxPoint x="120" y="588.5" as="targetPoint" />
          </mxGeometry>
        </mxCell>
        <mxCell id="CbZgWEF0q6MDqlBdlFNe-20" value="" style="endArrow=classic;html=1;rounded=0;" edge="1" parent="1">
          <mxGeometry width="50" height="50" relative="1" as="geometry">
            <mxPoint x="270" y="589" as="sourcePoint" />
            <mxPoint x="380" y="589" as="targetPoint" />
          </mxGeometry>
        </mxCell>
        <mxCell id="CbZgWEF0q6MDqlBdlFNe-21" value="&lt;font style=&quot;font-size: 15px;&quot;&gt;Extract&lt;/font&gt;" style="text;html=1;whiteSpace=wrap;strokeColor=none;fillColor=none;align=center;verticalAlign=middle;rounded=0;fontStyle=1" vertex="1" parent="1">
          <mxGeometry x="30" y="560" width="60" height="30" as="geometry" />
        </mxCell>
        <mxCell id="CbZgWEF0q6MDqlBdlFNe-22" value="&lt;font style=&quot;font-size: 15px;&quot;&gt;Load&lt;/font&gt;" style="text;html=1;whiteSpace=wrap;strokeColor=none;fillColor=none;align=center;verticalAlign=middle;rounded=0;fontStyle=1" vertex="1" parent="1">
          <mxGeometry x="290" y="560" width="60" height="30" as="geometry" />
        </mxCell>
        <mxCell id="CbZgWEF0q6MDqlBdlFNe-24" value="&lt;font style=&quot;font-size: 15px;&quot;&gt;Transform&lt;/font&gt;" style="text;html=1;whiteSpace=wrap;strokeColor=none;fillColor=none;align=center;verticalAlign=middle;rounded=0;fontStyle=1" vertex="1" parent="1">
          <mxGeometry x="162.5" y="574" width="60" height="30" as="geometry" />
        </mxCell>
        <mxCell id="CbZgWEF0q6MDqlBdlFNe-25" value="&lt;font style=&quot;font-size: 18px;&quot;&gt;Kaggle&lt;/font&gt;" style="text;html=1;whiteSpace=wrap;strokeColor=none;fillColor=none;align=center;verticalAlign=middle;rounded=0;fontStyle=1" vertex="1" parent="1">
          <mxGeometry x="-90.5" y="489" width="60" height="30" as="geometry" />
        </mxCell>
        <mxCell id="CbZgWEF0q6MDqlBdlFNe-26" value="/data/raw" style="text;html=1;whiteSpace=wrap;strokeColor=none;fillColor=none;align=center;verticalAlign=middle;rounded=0;" vertex="1" parent="1">
          <mxGeometry x="30" y="590" width="60" height="30" as="geometry" />
        </mxCell>
        <mxCell id="CbZgWEF0q6MDqlBdlFNe-27" value="/data/clean" style="text;html=1;whiteSpace=wrap;strokeColor=none;fillColor=none;align=center;verticalAlign=middle;rounded=0;" vertex="1" parent="1">
          <mxGeometry x="162.5" y="659" width="60" height="30" as="geometry" />
        </mxCell>
        <mxCell id="CbZgWEF0q6MDqlBdlFNe-28" value="/database" style="text;html=1;whiteSpace=wrap;strokeColor=none;fillColor=none;align=center;verticalAlign=middle;rounded=0;" vertex="1" parent="1">
          <mxGeometry x="400" y="659" width="60" height="30" as="geometry" />
        </mxCell>
        <mxCell id="CbZgWEF0q6MDqlBdlFNe-29" value="&lt;font style=&quot;font-size: 18px;&quot;&gt;&lt;b&gt;SQLite&lt;/b&gt;&lt;/font&gt;" style="text;html=1;whiteSpace=wrap;strokeColor=none;fillColor=none;align=center;verticalAlign=middle;rounded=0;strokeWidth=1;" vertex="1" parent="1">
          <mxGeometry x="400" y="489" width="60" height="30" as="geometry" />
        </mxCell>
        <mxCell id="CbZgWEF0q6MDqlBdlFNe-32" value="" style="rounded=0;whiteSpace=wrap;html=1;" vertex="1" parent="1">
          <mxGeometry x="-170" y="700" width="70" height="30" as="geometry" />
        </mxCell>
        <mxCell id="CbZgWEF0q6MDqlBdlFNe-31" value="main.py" style="text;html=1;whiteSpace=wrap;strokeColor=none;fillColor=none;align=center;verticalAlign=middle;rounded=0;" vertex="1" parent="1">
          <mxGeometry x="-170" y="700" width="60" height="30" as="geometry" />
        </mxCell>
      </root>
    </mxGraphModel>
  </diagram>
</mxfile>
